#!OML:ASF X:\für Bonn\!DataBase\2005_08_10_Bjorn_Final\c3d\bjorn.ASF
:FULLY-SPECIFIED
:DEGREES
170
root -2.67857 19.1763 -1.47264 613.862 80.8687 -98.2729
lowerback 3.49359 2.0132 -4.61394
upperback 11.6657 3.77165 -2.86922
thorax 10.4194 1.87361 -0.251576
lowerneck 4.39894 -3.71211 -0.962941
upperneck 21.6929 -5.50241 8.26462
head 6.09549 -1.86941 2.62914
rclavicle -1.27222e-014 -4.13472e-014
rhumerus -30.3267 -20.8909 -80.1305
rradius 29.0405
rwrist 8.4103
rhand -10.7384 16.6542
rfingers 7.12502
rthumb 15.2725 -12.7619
lclavicle -1.27222e-014 -4.13472e-014
lhumerus -2.65682 7.16544 62.4445
lradius 49.9127
lwrist -14.2306
lhand -36.6523 -15.3105
lfingers 7.12502
lthumb -9.7392 14.4443
rfemur -47.1831 -15.3649 17.9497
rtibia 87.7795
rfoot -7.48278 26.1398
rtoes -16.9025
lfemur -3.12145 -3.49699 -9.33242
ltibia 32.3791
lfoot -15.3749 -3.3471
ltoes -7.17205
171
root -2.62844 19.1572 -1.47201 613.107 80.7675 -98.925
lowerback 3.50093 2.06537 -4.67188
upperback 11.6805 3.84926 -2.87515
thorax 10.4286 1.9083 -0.221912
lowerneck 4.46565 -3.77895 -0.898283
upperneck 21.6931 -5.60336 8.36523
head 6.09076 -1.90595 2.64795
rclavicle 3.18055e-014 2.54444e-014
rhumerus -30.3202 -20.8695 -80.0722
rradius 28.9718
rwrist 8.44781
rhand -10.7782 16.62
rfingers 7.12502
rthumb 15.2341 -12.7991
lclavicle 3.18055e-014 2.54444e-014
lhumerus -2.29784 7.09531 62.8524
lradius 49.9407
lwrist -14.1279
lhand -36.7325 -15.2406
lfingers 7.12502
lthumb -9.81661 14.5106
rfemur -47.183 -15.2015 18.0713
rtibia 86.421
rfoot -7.79933 26.078
rtoes -17.1546
lfemur -2.98842 -3.77139 -9.30433
ltibia 32.6564
lfoot -15.6869 -3.23899
ltoes -7.0821
172
root -2.57848 19.1373 -1.47136 612.157 80.7018 -99.7562
lowerback 3.52626 2.0988 -4.75783
upperback 11.71 3.90674 -2.90685
thorax 10.4456 1.93288 -0.20591
lowerneck 4.51476 -3.83563 -0.824028
upperneck 21.6748 -5.69002 8.45464
head 6.08184 -1.93662 2.66158
rclavicle -2.14687e-014 2.8625e-014
rhumerus -30.2758 -20.9413 -80.0205
rradius 28.871
rwrist 8.58086
rhand -10.7558 16.643
rfingers 7.12502
rthumb 15.2558 -12.7745
lclavicle -2.14687e-014 2.8625e-014
lhumerus -1.94683 7.08798 63.237
lradius 49.967
lwrist -14.0476
lhand -36.7609 -15.1772
lfingers 7.12502
lthumb -9.84393 14.5727
rfemur -47.0746 -15.036 18.1328
rtibia 84.9841
rfoot -8.08649 25.9793
rtoes -17.4216
lfemur -2.84827 -4.04313 -9.3287
ltibia 32.947
lfoot -16.0142 -3.10602
ltoes -7.12267
173
root -2.52707 19.1187 -1.47026 611.457 80.6236 -100.348
lowerback 3.51404 2.14754 -4.82028
upperback 11.7492 3.98583 -2.91756
thorax 10.495 1.968 -0.177355
lowerneck 4.55554 -3.89939 -0.785542
upperneck 21.6634 -5.7887 8.55686
head 6.07837 -1.97464 2.68484
rclavicle 8.74653e-015 3.18055e-015
rhumerus -30.2429 -20.9701 -79.9545
rradius 28.8242
rwrist 8.67737
rhand -10.6945 16.6292
rfingers 7.12502
rthumb 15.3148 -12.7837
lclavicle 8.74653e-015 3.18055e-015
lhumerus -1.59169 7.06435 63.6474
lradius 50.0216
lwrist -13.942
lhand -36.7578 -15.1086
lfingers 7.12502
lthumb -9.84101 14.6414
rfemur -46.912 -14.839 18.2204
rtibia 83.4842
rfoot -8.35952 25.86
rtoes -17.8222
lfemur -2.69975 -4.29967 -9.32802
ltibia 33.2296
lfoot -16.3437 -2.99418
ltoes -7.16835
174
root -2.47615 19.1002 -1.46923 610.596 80.5985 -101.103
lowerback 3.51143 2.18921 -4.93453
upperback 11.7874 4.05819 -2.94435
thorax 10.5366 1.99637 -0.138294
lowerneck 4.63683 -3.95082 -0.781712
upperneck 21.582 -5.87401 8.70287
head 6.04686 -2.01044 2.72877
rclavicle -1.59028e-014 -6.99722e-014
rhumerus -30.1989 -20.965 -79.8906
rradius 28.7679
rwrist 8.73283
rhand -10.6778 16.6193
rfingers 7.12502
rthumb 15.3309 -12.7925
lclavicle -1.59028e-014 -6.99722e-014
lhumerus -1.24273 7.08481 64.0581
lradius 50.0628
lwrist -13.9301
lhand -36.7586 -15.0162
lfingers 7.12502
lthumb -9.84174 14.7338
rfemur -46.7014 -14.644 18.2299
rtibia 81.9427
rfoot -8.59858 25.6907
rtoes -18.1383
lfemur -2.55772 -4.54985 -9.39835
ltibia 33.5088
lfoot -16.672 -2.84543
ltoes -7.41749
175
root -2.42536 19.082 -1.46887 609.811 80.5371 -101.768
lowerback 3.52319 2.22524 -4.99554
upperback 11.8332 4.12 -2.95742
thorax 10.58 2.02377 -0.114931
lowerneck 4.71203 -3.99757 -0.796525
upperneck 21.5128 -5.95061 8.83121
head 6.01992 -2.04422 2.77052
rclavicle 3.18055e-015 3.49861e-014
rhumerus -30.1737 -20.852 -79.8486
rradius 28.7795
rwrist 8.66956
rhand -10.6101 16.5604
rfingers 7.12502
rthumb 15.3961 -12.8464
lclavicle 3.18055e-015 3.49861e-014
lhumerus -0.90994 7.13092 64.4763
lradius 50.1106
lwrist -13.893
lhand -36.705 -14.9045
lfingers 7.12502
lthumb -9.79006 14.8479
rfemur -46.4429 -14.4563 18.2658
rtibia 80.3902
rfoot -8.8372 25.4528
rtoes -18.64
lfemur -2.38712 -4.79848 -9.43222
ltibia 33.7656
lfoot -16.9873 -2.70631
ltoes -7.63635
176
root -2.37322 19.0615 -1.46796 609.046 80.5136 -102.455
lowerback 3.48464 2.26404 -5.05867
upperback 11.8706 4.19206 -3.00643
thorax 10.6466 2.05744 -0.125882
lowerneck 4.73861 -4.05394 -0.76673
upperneck 21.4937 -6.04098 8.9412
head 6.01659 -2.07892 2.79782
rclavicle -2.54444e-014 6.36111e-015
rhumerus -30.1417 -20.7838 -79.8439
rradius 28.7885
rwrist 8.62516
rhand -10.558 16.4785
rfingers 7.12502
rthumb 15.4462 -12.9243
lclavicle -2.54444e-014 6.36111e-015
lhumerus -0.577794 7.13207 64.8413
lradius 50.1623
lwrist -13.8917
lhand -36.7105 -14.8252
lfingers 7.12502
lthumb -9.79532 14.927
rfemur -46.2249 -14.271 18.2636
rtibia 78.8508
rfoot -9.07358 25.142
rtoes -19.3425
lfemur -2.24816 -5.05101 -9.5052
ltibia 33.9999
lfoot -17.288 -2.55602
ltoes -7.73386
177
root -2.32196 19.0452 -1.4672 608.319 80.4879 -103.099
lowerback 3.46157 2.30587 -5.10635
upperback 11.9139 4.26788 -3.05402
thorax 10.7117 2.09472 -0.144209
lowerneck 4.79192 -4.10557 -0.75748
upperneck 21.4244 -6.12794 9.08818
head 5.99401 -2.11432 2.84074
rclavicle -1.27222e-014 9.54166e-015
rhumerus -30.1122 -20.754 -79.8293
rradius 28.8126
rwrist 8.63694
rhand -10.5157 16.3954
rfingers 7.12502
rthumb 15.487 -13.0042
lclavicle -1.27222e-014 9.54166e-015
lhumerus -0.218285 7.20756 65.2201
lradius 50.2038
lwrist -13.8578
lhand -36.6351 -14.9182
lfingers 7.12502
lthumb -9.72256 14.8374
rfemur -45.9784 -14.0987 18.2606
rtibia 77.3086
rfoot -9.33243 24.8223
rtoes -20.0508
lfemur -2.0794 -5.27628 -9.5758
ltibia 34.1867
lfoot -17.5681 -2.39983
ltoes -7.9857
178
root -2.27049 19.0324 -1.46783 607.614 80.4454 -103.726
lowerback 3.42266 2.33751 -5.09751
upperback 11.9707 4.33338 -3.11509
thorax 10.8066 2.13297 -0.2073
lowerneck 4.79211 -4.15633 -0.745117
upperneck 21.3735 -6.21757 9.23356
head 5.98643 -2.1493 2.88155
rclavicle 1.66979e-014 3.18055e-014
rhumerus -30.035 -20.7224 -79.8635
rradius 28.8267
rwrist 8.58165
rhand -10.4671 16.3661
rfingers 7.12502
rthumb 15.5338 -13.0299
lclavicle 1.66979e-014 3.18055e-014
lhumerus 0.172166 7.30982 65.5677
lradius 50.2098
lwrist -13.9216
lhand -36.5564 -14.9541
lfingers 7.12502
lthumb -9.64669 14.805
rfemur -45.7111 -13.9514 18.2732
rtibia 75.761
rfoot -9.73466 24.4813
rtoes -20.9567
lfemur -1.89384 -5.48045 -9.62924
ltibia 34.3385
lfoot -17.8116 -2.27302
ltoes -8.20515
179
root -2.21796 19.0207 -1.46777 606.953 80.4228 -104.322
lowerback 3.3733 2.37239 -5.10583
upperback 12.0179 4.40279 -3.17457
thorax 10.8959 2.17112 -0.258658
lowerneck 4.7741 -4.20638 -0.745126
upperneck 21.3586 -6.30621 9.36754
head 5.99351 -2.18321 2.92082
rclavicle -4.6118e-014 -3.18055e-015
rhumerus -29.9627 -20.7096 -79.8741
rradius 28.8403
rwrist 8.53021
rhand -10.439 16.355
rfingers 7.12502
rthumb 15.5609 -13.039
lclavicle -4.6118e-014 -3.18055e-015
lhumerus 0.516625 7.43082 65.9191
lradius 50.2628
lwrist -13.9578
lhand -36.4706 -15.03
lfingers 7.12502
lthumb -9.56387 14.7329
rfemur -45.4101 -13.8013 18.2699
rtibia 74.1921
rfoot -9.97027 24.1959
rtoes -21.3818
lfemur -1.69554 -5.71468 -9.70679
ltibia 34.4418
lfoot -18.051 -2.12933
ltoes -8.38117
180
root -2.16616 19.0089 -1.46803 606.3 80.4002 -104.913
lowerback 3.32438 2.40416 -5.09383
upperback 12.0664 4.46744 -3.23238
thorax 10.9877 2.20879 -0.319555
lowerneck 4.81099 -4.25146 -0.791993
upperneck 21.2943 -6.38933 9.53956
head 5.97754 -2.21939 2.9812
rclavicle 3.97569e-014 1.27222e-014
rhumerus -29.9048 -20.7321 -79.8763
rradius 28.859
rwrist 8.55379
rhand -10.4286 16.3775
rfingers 7.12502
rthumb 15.5709 -13.0157
lclavicle 3.97569e-014 1.27222e-014
lhumerus 0.873233 7.55122 66.2774
lradius 50.2741
lwrist -14.0655
lhand -36.4055 -15.052
lfingers 7.12502
lthumb -9.50103 14.7138
rfemur -45.0859 -13.6693 18.2551
rtibia 72.6126
rfoot -9.88109 23.9216
rtoes -21.434
lfemur -1.49482 -5.90219 -9.78096
ltibia 34.5279
lfoot -18.2755 -1.98392
ltoes -8.63366
